<mxfile host="Electron" modified="2024-04-05T04:45:04.939Z" agent="Mozilla/5.0 (Macintosh; Intel Mac OS X 10_15_7) AppleWebKit/537.36 (KHTML, like Gecko) draw.io/24.1.0 Chrome/120.0.6099.109 Electron/28.1.0 Safari/537.36" etag="uEi6Exqt7cTgjQ1xROaF" version="24.1.0" type="device">
  <diagram name="Page-1" id="ptGT10x4MBkrm0GtYfOt">
    <mxGraphModel dx="746" dy="574" grid="1" gridSize="10" guides="1" tooltips="1" connect="1" arrows="1" fold="1" page="1" pageScale="1" pageWidth="850" pageHeight="1100" math="0" shadow="0">
      <root>
        <mxCell id="0" />
        <mxCell id="1" parent="0" />
        <mxCell id="DPLYXIbTDX89WcI7YAck-5" style="edgeStyle=orthogonalEdgeStyle;rounded=0;orthogonalLoop=1;jettySize=auto;html=1;exitX=1;exitY=0.5;exitDx=0;exitDy=0;" parent="1" source="DPLYXIbTDX89WcI7YAck-1" edge="1">
          <mxGeometry relative="1" as="geometry">
            <mxPoint x="370" y="290" as="targetPoint" />
            <Array as="points">
              <mxPoint x="295" y="290" />
              <mxPoint x="295" y="291" />
            </Array>
          </mxGeometry>
        </mxCell>
        <mxCell id="DPLYXIbTDX89WcI7YAck-11" value="CAPTURED&lt;div&gt;Camera feed&lt;/div&gt;" style="edgeLabel;html=1;align=center;verticalAlign=middle;resizable=0;points=[];" parent="DPLYXIbTDX89WcI7YAck-5" vertex="1" connectable="0">
          <mxGeometry x="-0.0755" y="1" relative="1" as="geometry">
            <mxPoint as="offset" />
          </mxGeometry>
        </mxCell>
        <mxCell id="DPLYXIbTDX89WcI7YAck-1" value="USER" style="rounded=0;whiteSpace=wrap;html=1;" parent="1" vertex="1">
          <mxGeometry x="100" y="260" width="120" height="60" as="geometry" />
        </mxCell>
        <mxCell id="DPLYXIbTDX89WcI7YAck-2" value="USER" style="rounded=0;whiteSpace=wrap;html=1;" parent="1" vertex="1">
          <mxGeometry x="650" y="260" width="120" height="60" as="geometry" />
        </mxCell>
        <mxCell id="DPLYXIbTDX89WcI7YAck-3" value="0.0&lt;div&gt;HoopsEYE&lt;/div&gt;" style="ellipse;whiteSpace=wrap;html=1;aspect=fixed;strokeColor=#3C00FF;" parent="1" vertex="1">
          <mxGeometry x="380" y="240" width="120" height="120" as="geometry" />
        </mxCell>
        <mxCell id="DPLYXIbTDX89WcI7YAck-4" value="" style="endArrow=classic;html=1;rounded=0;entryX=0;entryY=0.5;entryDx=0;entryDy=0;exitX=1;exitY=0.417;exitDx=0;exitDy=0;exitPerimeter=0;" parent="1" source="DPLYXIbTDX89WcI7YAck-3" target="DPLYXIbTDX89WcI7YAck-2" edge="1">
          <mxGeometry width="50" height="50" relative="1" as="geometry">
            <mxPoint x="400" y="330" as="sourcePoint" />
            <mxPoint x="450" y="280" as="targetPoint" />
            <Array as="points" />
          </mxGeometry>
        </mxCell>
        <mxCell id="DPLYXIbTDX89WcI7YAck-7" value="RETURNS&lt;div&gt;GAME INSIGHTS&lt;/div&gt;" style="edgeLabel;html=1;align=center;verticalAlign=middle;resizable=0;points=[];" parent="DPLYXIbTDX89WcI7YAck-4" vertex="1" connectable="0">
          <mxGeometry x="-0.0293" y="-3" relative="1" as="geometry">
            <mxPoint as="offset" />
          </mxGeometry>
        </mxCell>
      </root>
    </mxGraphModel>
  </diagram>
</mxfile>
